<svg xmlns="http://www.w3.org/2000/svg" viewBox="0 0 1538 943.41"><defs><style>.cls-1{fill:#62bf6b;}.cls-2{fill:#fff;}.cls-10,.cls-3{stroke:#000;stroke-miterlimit:10;}.cls-4{fill:#dd7657;}.cls-5{fill:#616dd8;}.cls-6{fill:#ea638a;}.cls-7{fill:#b163d6;}.cls-8{fill:#e541e5;}.cls-9{fill:#303342;}.cls-10{fill:none;}</style></defs><g id="Capa_1" data-name="Capa 1"><rect class="cls-1" x="299.67" width="559.71" height="174.41" rx="32.78"/></g><g id="Capa_2" data-name="Capa 2"><path class="cls-2" d="M638.51,147.51h13.13c9.74,0,15.38,6.16,15.38,15s-5.5,15.63-15.52,15.63h-13Zm9,24.09h3.43c4.86,0,6.86-3.41,6.86-9.14,0-5.06-1.86-8.46-6.75-8.46h-3.54Z" transform="translate(-280 -79)"/><path class="cls-2" d="M693.66,170.65c0,2.06,0,5.22.05,7.44h-8.5a24.15,24.15,0,0,1-.17-2.46c-1.5,2.2-3.5,3-6.44,3-5,0-7.65-3-7.65-8.55V154.81h8.64v13.87c0,2.11.6,3.6,2.56,3.6s2.85-1.14,2.85-4.59V154.81h8.66Z" transform="translate(-280 -79)"/><path class="cls-2" d="M706.38,168.16c0,2.35.9,4.7,3.45,4.7,2,0,2.64-.87,3.08-2.1h8.5c-.85,3.1-3.49,7.89-11.73,7.89-8.79,0-12-5.92-12-12,0-7,3.71-12.4,12.18-12.4,9,0,11.77,6.1,11.77,11.91a17.45,17.45,0,0,1-.08,2Zm6.56-4.51c0-2.18-.65-4-3.13-4-2.31,0-3.2,1.7-3.35,4Z" transform="translate(-280 -79)"/><path class="cls-2" d="M725.56,160.85c0-2,0-4.2-.06-6H734a22.33,22.33,0,0,1,.26,2.57c.9-1.33,2.83-3.13,6.62-3.13,4.66,0,7.61,3.15,7.61,8.84v15H739.8v-14c0-2.25-.65-3.51-2.64-3.51-1.81,0-2.95,1-2.95,4.22v13.28h-8.65Zm3.27-9.06v-1.47c0-4.29,2.07-5.24,4.46-5.24,2.73,0,4.72,1.67,6.13,1.67.55,0,.89-.28.89-1.22v-.46H745v1.1c0,4.9-2.3,5.8-4.61,5.8-2.67,0-4.68-1.61-5.95-1.61-.56,0-.84.24-.84.87v.56Z" transform="translate(-280 -79)"/><path class="cls-2" d="M777.09,166.42c0,7.26-4.53,12.23-12.53,12.23-8.25,0-12.34-5.42-12.34-12.14,0-7,4.27-12.26,12.62-12.26C772.52,154.25,777.09,159.37,777.09,166.42Zm-16,.05c0,4.43,1.3,6.37,3.62,6.37s3.51-2,3.51-6.3c0-4.8-1.2-6.44-3.56-6.44C762.5,160.1,761.08,161.64,761.08,166.47Z" transform="translate(-280 -79)"/><path class="cls-2" d="M814.13,145.92v25.13c0,2.34,0,5,0,7H805.8a19.81,19.81,0,0,1-.3-2.22c-1.16,1.7-3,2.78-6.33,2.78-6.11,0-9.41-5.24-9.41-12.05,0-7.09,3.81-12.35,10.35-12.35,2.75,0,4.72.84,5.36,1.93V145.92Zm-15.5,20.47c0,4.07,1.19,6.18,3.62,6.18,3.27,0,3.56-3,3.56-6.15,0-3.91-.35-6.15-3.46-6.15C799.92,160.27,798.63,162.24,798.63,166.39Z" transform="translate(-280 -79)"/><path class="cls-2" d="M826.64,168.16c0,2.35.9,4.7,3.45,4.7,2.06,0,2.64-.87,3.08-2.1h8.5c-.84,3.1-3.48,7.89-11.72,7.89-8.79,0-12-5.92-12-12,0-7,3.72-12.4,12.19-12.4,9,0,11.77,6.1,11.77,11.91a17.28,17.28,0,0,1-.09,2Zm6.57-4.51c0-2.18-.65-4-3.13-4-2.31,0-3.21,1.7-3.35,4Z" transform="translate(-280 -79)"/><path class="cls-2" d="M855.25,178.09V145.92h8.66v32.17Z" transform="translate(-280 -79)"/><path class="cls-2" d="M890.22,171.18a68.14,68.14,0,0,0,.28,6.91h-8a9.76,9.76,0,0,1-.36-2.15c-1.11,1.45-2.82,2.71-6.57,2.71-5.22,0-8-3.28-8-7.42,0-5.47,4.39-7.84,11.5-7.84h2.85v-1.28c0-1.49-.53-2.59-2.62-2.59s-2.47.9-2.67,2.4h-8c.31-3.88,2.61-7.7,10.88-7.67,7.64,0,10.73,3,10.73,8.58Zm-8.33-3.42H880c-3,0-4,1-4,2.76a2.31,2.31,0,0,0,2.53,2.47c2.94,0,3.35-2,3.35-4.51Z" transform="translate(-280 -79)"/><path class="cls-2" d="M928.32,165.71H914.39v5.74h15.55l-1,6.64H905.77V147.51h23.14v6.64H914.39v4.92h13.93Z" transform="translate(-280 -79)"/><path class="cls-2" d="M933.3,161.18c0-2.14,0-4.39,0-6.37h8.3c.09.53.22,1.66.27,2.48a7.81,7.81,0,0,1,6.55-3c3.49,0,5.17,1.71,5.94,3.2a8.54,8.54,0,0,1,7.14-3.2c4.33,0,7.54,2.73,7.54,8.7v15.14h-8.46V163.7c0-1.72-.57-3.14-2.42-3.14s-2.67,1.26-2.67,3.94v13.59h-8.51V163.78c0-1.75-.44-3.19-2.38-3.19s-2.72,1.09-2.72,4.11v13.39H933.3Z" transform="translate(-280 -79)"/><path class="cls-2" d="M982.53,176.46v10.16h-8.61V161.08c0-2.1,0-4.64,0-6.27h8.42a19.34,19.34,0,0,1,.23,2.6c.91-1.38,2.79-3.16,6.52-3.16,4.9,0,9.12,4.06,9.12,11.64,0,8.61-4.86,12.76-10.22,12.76C985.06,178.65,983.44,177.64,982.53,176.46Zm6.8-10.23c0-4.3-1.3-5.88-3.52-5.88-2.72,0-3.56,1.86-3.56,6.21,0,4,.84,6.1,3.37,6.1S989.33,170.7,989.33,166.23Z" transform="translate(-280 -79)"/><path class="cls-2" d="M1002,161.49c0-2.22,0-4.61-.06-6.68h8.46a37.67,37.67,0,0,1,.21,3.78c.9-2.23,3.16-4.31,7.16-4.34v7.91c-4.9-.21-7.11.91-7.11,6.36v9.57H1002Z" transform="translate(-280 -79)"/><path class="cls-2" d="M1028.6,168.16c0,2.35.9,4.7,3.45,4.7,2,0,2.64-.87,3.08-2.1h8.5c-.85,3.1-3.49,7.89-11.73,7.89-8.79,0-12-5.92-12-12,0-7,3.71-12.4,12.18-12.4,9,0,11.77,6.1,11.77,11.91a17.45,17.45,0,0,1-.08,2Zm6.56-4.51c0-2.18-.65-4-3.13-4-2.31,0-3.2,1.7-3.35,4Z" transform="translate(-280 -79)"/><path class="cls-2" d="M1054.31,170.9c.37,1.49,1.6,2.31,3.5,2.31,1.71,0,2.45-.52,2.45-1.6s-1-1.55-4.09-2.24c-8-1.8-9.17-4.45-9.17-7.74s2.36-7.38,10.32-7.38c7.6,0,10.32,3.89,10.55,7.17h-7.76c-.18-.82-.68-2-3-2-1.56,0-2.12.64-2.12,1.43s.76,1.31,4.54,2.15c7.43,1.67,9,4.25,9,7.91,0,4.15-3,7.74-11,7.74-7.6,0-10.78-3.63-11.25-7.75Z" transform="translate(-280 -79)"/><path class="cls-2" d="M1093.86,171.18a68.14,68.14,0,0,0,.28,6.91h-8a9.76,9.76,0,0,1-.36-2.15c-1.11,1.45-2.82,2.71-6.57,2.71-5.22,0-8-3.28-8-7.42,0-5.47,4.39-7.84,11.5-7.84h2.85v-1.28c0-1.49-.53-2.59-2.61-2.59s-2.48.9-2.68,2.4h-8c.3-3.88,2.61-7.7,10.88-7.67,7.64,0,10.73,3,10.73,8.58Zm-8.33-3.42h-1.91c-3,0-4,1-4,2.76a2.32,2.32,0,0,0,2.54,2.47c2.93,0,3.34-2,3.34-4.51Z" transform="translate(-280 -79)"/></g><g id="Capa_3" data-name="Capa 3"><line class="cls-3" x1="579.52" y1="173.62" x2="581.11" y2="287.78"/><line class="cls-3" x1="579.52" y1="383.71" x2="579.52" y2="471.71"/></g><g id="Capa_4" data-name="Capa 4"><rect class="cls-4" x="396.39" y="286.99" width="369.44" height="96.72" rx="22.61"/></g><g id="Capa_5" data-name="Capa 5"><path class="cls-2" d="M806,417.06c-.88,5-4.56,8.35-11.15,8.35-7.87,0-11.67-5.31-11.67-12.28,0-6.8,3.75-12.63,12-12.63,7.06,0,10.27,4.1,10.74,8.26h-7a3.66,3.66,0,0,0-3.93-3.32c-3.42,0-4.59,3.25-4.59,7.44,0,3.81,1,7.57,4.67,7.57,2.8,0,3.58-2,3.88-3.39Z" transform="translate(-280 -79)"/><path class="cls-2" d="M827.76,415.8c0,5.71-3.56,9.61-9.84,9.61-6.48,0-9.69-4.26-9.69-9.54,0-5.52,3.35-9.63,9.91-9.63C824.17,406.24,827.76,410.26,827.76,415.8Zm-12.58,0c0,3.49,1,5,2.85,5s2.76-1.55,2.76-4.95c0-3.76-.95-5.05-2.8-5.05C816.3,410.84,815.18,412,815.18,415.83Z" transform="translate(-280 -79)"/><path class="cls-2" d="M830.81,411.42c0-1.58,0-3.29,0-4.74h6.64a20.23,20.23,0,0,1,.21,2,5.87,5.87,0,0,1,5.2-2.46c3.66,0,6,2.47,6,6.95V425H842V414c0-1.76-.5-2.75-2.07-2.75-1.42,0-2.31.75-2.31,3.32V425h-6.8Z" transform="translate(-280 -79)"/><path class="cls-2" d="M850.86,406.68h2.64v-4.74h6.73v4.74h3.2v4.59h-3.2v7.84c0,1.13.35,1.56,1.78,1.56.26,0,.59,0,1,0v4.2a14.94,14.94,0,0,1-4,.42c-4.33,0-5.54-2.11-5.54-5.57v-8.42h-2.6Z" transform="translate(-280 -79)"/><path class="cls-2" d="M883,419.54c0,2.06.11,4.81.22,5.43H876.9a7.56,7.56,0,0,1-.28-1.69c-.87,1.13-2.22,2.13-5.16,2.13-4.1,0-6.32-2.58-6.32-5.83,0-4.3,3.45-6.16,9-6.16h2.24v-1c0-1.17-.41-2-2-2s-2,.71-2.11,1.89H866c.24-3.06,2-6.06,8.55-6,6,0,8.42,2.33,8.42,6.74Zm-6.54-2.69h-1.5c-2.35,0-3.12.82-3.12,2.17a1.82,1.82,0,0,0,2,1.94c2.31,0,2.63-1.58,2.63-3.55Z" transform="translate(-280 -79)"/><path class="cls-2" d="M905.11,399.7v19.74c0,1.83,0,3.95,0,5.53h-6.58c-.1-.54-.2-1.3-.23-1.75-.91,1.34-2.35,2.19-5,2.19-4.81,0-7.39-4.12-7.39-9.47,0-5.57,3-9.7,8.13-9.7,2.16,0,3.7.66,4.2,1.52V399.7Zm-12.18,16.07c0,3.21.94,4.86,2.85,4.86,2.57,0,2.8-2.34,2.8-4.83,0-3.07-.28-4.83-2.72-4.83C894,411,892.93,412.52,892.93,415.77Z" transform="translate(-280 -79)"/><path class="cls-2" d="M927.63,415.8c0,5.71-3.56,9.61-9.84,9.61-6.48,0-9.7-4.26-9.7-9.54,0-5.52,3.36-9.63,9.92-9.63C924,406.24,927.63,410.26,927.63,415.8Zm-12.58,0c0,3.49,1,5,2.84,5s2.77-1.55,2.77-4.95c0-3.76-.95-5.05-2.8-5.05C916.17,410.84,915.05,412,915.05,415.83Z" transform="translate(-280 -79)"/><path class="cls-2" d="M930.65,411.93c0-1.75,0-3.62,0-5.25h6.64c.08.57.17,2.17.17,3,.7-1.75,2.48-3.39,5.62-3.41v6.21c-3.85-.16-5.59.72-5.59,5V425h-6.8Z" transform="translate(-280 -79)"/></g><g id="Capa_6" data-name="Capa 6"><rect class="cls-5" x="405.91" y="470.91" width="352" height="93.55" rx="28.39"/><rect class="cls-5" y="474.08" width="352" height="93.55" rx="28.39"/><rect class="cls-6" y="602.52" width="352" height="93.55" rx="28.39"/><rect class="cls-6" y="724.6" width="352" height="93.55" rx="28.39"/><rect class="cls-6" y="848.28" width="352" height="93.55" rx="28.39"/><rect class="cls-6" x="374.19" y="849.86" width="352" height="93.55" rx="28.39"/><rect class="cls-7" x="405.91" y="602.52" width="352" height="93.55" rx="28.39"/><rect class="cls-8" x="800.71" y="602.52" width="352" height="93.55" rx="28.39"/><rect class="cls-9" x="1186" y="605.69" width="352" height="93.55" rx="28.39"/><rect class="cls-5" x="800.71" y="474.08" width="352" height="93.55" rx="28.39"/><rect class="cls-5" x="1182.83" y="474.08" width="352" height="93.55" rx="28.39"/></g><g id="Capa_7" data-name="Capa 7"><path class="cls-2" d="M750.33,576.25h6.57c4.87,0,7.69,3.08,7.69,7.48s-2.75,7.81-7.76,7.81h-6.5Zm4.49,12h1.71c2.44,0,3.43-1.7,3.43-4.56,0-2.54-.93-4.23-3.37-4.23h-1.77Z" transform="translate(-280 -79)"/><path class="cls-2" d="M766.74,575.46h4.33v3h-4.33Zm0,4.44h4.33v11.64h-4.33Z" transform="translate(-280 -79)"/><path class="cls-2" d="M773.58,583.24c0-1.11,0-2.3,0-3.34h4.23c.05.36.1,1.38.1,1.89a3.63,3.63,0,0,1,3.58-2.17v4c-2.45-.11-3.56.45-3.56,3.18v4.78h-4.32Z" transform="translate(-280 -79)"/><path class="cls-2" d="M786.86,586.58c0,1.17.45,2.34,1.73,2.34a1.36,1.36,0,0,0,1.54-1h4.25c-.42,1.54-1.74,3.94-5.86,3.94-4.4,0-6-3-6-6,0-3.51,1.85-6.2,6.09-6.2,4.51,0,5.88,3,5.88,6a7.79,7.79,0,0,1,0,1Zm3.29-2.26c0-1.09-.33-2-1.57-2s-1.6.85-1.67,2Z" transform="translate(-280 -79)"/><path class="cls-2" d="M807.65,587.51c-.35,2.09-1.71,4.31-5.72,4.31s-5.9-2.69-5.9-6c0-3.5,2.17-6.21,6.05-6.21,4.39,0,5.49,3,5.57,4.36h-4.13c-.11-.82-.47-1.46-1.42-1.46s-1.64,1-1.64,3.15c0,2.4.6,3.29,1.62,3.29s1.26-.67,1.45-1.45Z" transform="translate(-280 -79)"/><path class="cls-2" d="M808.57,579.9h1.68v-3h4.28v3h2v2.92h-2v5c0,.72.23,1,1.14,1,.16,0,.37,0,.6,0v2.67a9.6,9.6,0,0,1-2.52.27c-2.75,0-3.52-1.35-3.52-3.55v-5.36h-1.66Z" transform="translate(-280 -79)"/><path class="cls-2" d="M830,585.71c0,3.63-2.26,6.11-6.26,6.11s-6.17-2.71-6.17-6.07,2.13-6.13,6.31-6.13A5.74,5.74,0,0,1,830,585.71Zm-8,0c0,2.21.66,3.19,1.81,3.19s1.76-1,1.76-3.15c0-2.4-.6-3.22-1.78-3.22S822,583.32,822,585.73Z" transform="translate(-280 -79)"/><path class="cls-2" d="M831.93,583.24c0-1.11,0-2.3,0-3.34h4.23a17.37,17.37,0,0,1,.11,1.89,3.63,3.63,0,0,1,3.58-2.17v4c-2.45-.11-3.56.45-3.56,3.18v4.78h-4.33Z" transform="translate(-280 -79)"/><path class="cls-2" d="M858.08,575.46V588c0,1.17,0,2.52,0,3.52h-4.19a10.06,10.06,0,0,1-.15-1.11,3.44,3.44,0,0,1-3.16,1.39c-3.06,0-4.71-2.62-4.71-6s1.91-6.17,5.18-6.17a3.15,3.15,0,0,1,2.68,1v-5.13Zm-7.75,10.23c0,2,.59,3.09,1.81,3.09,1.63,0,1.78-1.49,1.78-3.08,0-2-.18-3.07-1.73-3.07C851,582.63,850.33,583.62,850.33,585.69Z" transform="translate(-280 -79)"/><path class="cls-2" d="M864.33,586.58c0,1.17.45,2.34,1.73,2.34a1.37,1.37,0,0,0,1.54-1h4.25c-.42,1.54-1.74,3.94-5.86,3.94-4.4,0-6-3-6-6,0-3.51,1.86-6.2,6.1-6.2,4.51,0,5.88,3,5.88,6,0,.39,0,.68,0,1Zm3.28-2.26c0-1.09-.32-2-1.56-2s-1.6.85-1.67,2Z" transform="translate(-280 -79)"/><path class="cls-2" d="M883.34,585.76v5.78H879V576.25h7.58c3.6,0,5.34,1.93,5.34,4.23a3.71,3.71,0,0,1-2.3,3.63c1,.34,2,1.36,2,3.95v.63a14.29,14.29,0,0,0,.2,2.85h-4.27a10.44,10.44,0,0,1-.33-3.34v-.39c0-1.32-.31-2-2.29-2Zm0-3.12h2.07c1.49,0,2-.62,2-1.65s-.65-1.62-2-1.62h-2.09Z" transform="translate(-280 -79)"/><path class="cls-2" d="M897.65,586.58c0,1.17.45,2.34,1.73,2.34a1.37,1.37,0,0,0,1.54-1h4.25c-.42,1.54-1.75,3.94-5.87,3.94-4.39,0-6-3-6-6,0-3.51,1.86-6.2,6.09-6.2,4.51,0,5.89,3,5.89,6,0,.39,0,.68,0,1Zm3.28-2.26c0-1.09-.32-2-1.56-2s-1.6.85-1.67,2Z" transform="translate(-280 -79)"/><path class="cls-2" d="M918.43,587.51c-.34,2.09-1.7,4.31-5.72,4.31s-5.89-2.69-5.89-6c0-3.5,2.17-6.21,6-6.21,4.38,0,5.49,3,5.56,4.36h-4.12c-.11-.82-.47-1.46-1.42-1.46s-1.64,1-1.64,3.15c0,2.4.6,3.29,1.62,3.29s1.26-.67,1.45-1.45Z" transform="translate(-280 -79)"/><path class="cls-2" d="M931.43,587.82c0,1,0,2.61,0,3.72H927.2c-.05-.28-.07-.92-.09-1.23a3.46,3.46,0,0,1-3.21,1.52c-2.5,0-3.83-1.52-3.83-4.28V579.9h4.32v6.93c0,1.06.3,1.8,1.28,1.8s1.43-.57,1.43-2.29V579.9h4.33Z" transform="translate(-280 -79)"/><path class="cls-2" d="M933.89,583.24c0-1.11,0-2.3,0-3.34h4.23c0,.36.1,1.38.1,1.89a3.63,3.63,0,0,1,3.58-2.17v4c-2.45-.11-3.55.45-3.55,3.18v4.78h-4.33Z" transform="translate(-280 -79)"/><path class="cls-2" d="M946.83,588a1.59,1.59,0,0,0,1.74,1.15c.86,0,1.23-.26,1.23-.8s-.51-.77-2-1.12c-4-.9-4.58-2.22-4.58-3.87s1.18-3.69,5.16-3.69c3.8,0,5.16,2,5.27,3.59h-3.88c-.08-.41-.34-1-1.51-1-.77,0-1.05.33-1.05.72s.38.66,2.27,1.08c3.71.83,4.51,2.12,4.51,4,0,2.07-1.52,3.87-5.5,3.87-3.8,0-5.39-1.82-5.63-3.87Z" transform="translate(-280 -79)"/><path class="cls-2" d="M967.7,585.71c0,3.63-2.26,6.11-6.26,6.11s-6.17-2.71-6.17-6.07,2.13-6.13,6.31-6.13A5.74,5.74,0,0,1,967.7,585.71Zm-8,0c0,2.21.65,3.19,1.81,3.19s1.75-1,1.75-3.15c0-2.4-.6-3.22-1.78-3.22S959.7,583.32,959.7,585.73Z" transform="translate(-280 -79)"/><path class="cls-2" d="M973,588a1.6,1.6,0,0,0,1.75,1.15c.86,0,1.23-.26,1.23-.8s-.52-.77-2.05-1.12c-4-.9-4.59-2.22-4.59-3.87s1.19-3.69,5.17-3.69c3.79,0,5.16,2,5.27,3.59h-3.88c-.09-.41-.34-1-1.51-1-.78,0-1.06.33-1.06.72s.38.66,2.27,1.08c3.72.83,4.51,2.12,4.51,4,0,2.07-1.51,3.87-5.49,3.87-3.8,0-5.39-1.82-5.63-3.87Z" transform="translate(-280 -79)"/><path class="cls-2" d="M814.46,602.89H819v5.72h4.67v-5.72h4.5v15.29h-4.5v-6.25H819v6.25h-4.49Z" transform="translate(-280 -79)"/><path class="cls-2" d="M841.86,614.46c0,1,0,2.61,0,3.72h-4.24a9.75,9.75,0,0,1-.09-1.23,3.49,3.49,0,0,1-3.22,1.52c-2.5,0-3.83-1.52-3.83-4.28v-7.65h4.33v6.93c0,1.06.3,1.8,1.27,1.8s1.43-.57,1.43-2.29v-6.44h4.33Z" transform="translate(-280 -79)"/><path class="cls-2" d="M844.32,609.72c0-1.06,0-2.19,0-3.18h4.15c0,.27.11.83.13,1.24a3.9,3.9,0,0,1,3.28-1.52,3.09,3.09,0,0,1,3,1.6,4.24,4.24,0,0,1,3.56-1.6c2.17,0,3.78,1.36,3.78,4.35v7.57h-4.24V611c0-.86-.28-1.56-1.21-1.56s-1.33.63-1.33,2v6.8h-4.26V611c0-.87-.22-1.59-1.18-1.59s-1.36.54-1.36,2.05v6.7h-4.27Z" transform="translate(-280 -79)"/><path class="cls-2" d="M875.3,614.73a32.58,32.58,0,0,0,.14,3.45h-4a5.19,5.19,0,0,1-.17-1.08,3.68,3.68,0,0,1-3.29,1.36c-2.61,0-4-1.64-4-3.71,0-2.74,2.19-3.92,5.75-3.92h1.43v-.64c0-.75-.27-1.3-1.31-1.3s-1.24.45-1.34,1.2h-4c.16-1.94,1.31-3.85,5.45-3.83,3.81,0,5.36,1.48,5.36,4.29ZM871.14,613h-1c-1.49,0-2,.53-2,1.38a1.15,1.15,0,0,0,1.26,1.24c1.47,0,1.68-1,1.68-2.26Z" transform="translate(-280 -79)"/><path class="cls-2" d="M877.81,609.56c0-1,0-2.1,0-3H882a12.53,12.53,0,0,1,.14,1.28,3.74,3.74,0,0,1,3.31-1.56c2.33,0,3.8,1.57,3.8,4.42v7.5h-4.32v-7c0-1.12-.33-1.75-1.32-1.75s-1.47.48-1.47,2.11v6.64h-4.33Z" transform="translate(-280 -79)"/><path class="cls-2" d="M903.57,612.34c0,3.64-2.26,6.12-6.26,6.12s-6.17-2.71-6.17-6.07,2.14-6.13,6.31-6.13A5.74,5.74,0,0,1,903.57,612.34Zm-8,0c0,2.21.65,3.18,1.81,3.18s1.76-1,1.76-3.15c0-2.4-.61-3.21-1.78-3.21S895.57,610,895.57,612.37Z" transform="translate(-280 -79)"/><path class="cls-2" d="M908.85,614.58a1.58,1.58,0,0,0,1.74,1.16c.86,0,1.23-.26,1.23-.8s-.51-.78-2.05-1.12c-4-.9-4.58-2.23-4.58-3.87s1.18-3.69,5.16-3.69c3.8,0,5.16,1.94,5.27,3.58h-3.88c-.08-.41-.34-1-1.51-1-.77,0-1.05.32-1.05.72s.38.65,2.27,1.08c3.71.83,4.51,2.12,4.51,4,0,2.07-1.52,3.87-5.5,3.87-3.8,0-5.39-1.82-5.63-3.88Z" transform="translate(-280 -79)"/><path class="cls-2" d="M1515.22,588.93h6.57c4.87,0,7.69,3.08,7.69,7.48s-2.75,7.81-7.76,7.81h-6.5Zm4.49,12.05h1.71c2.44,0,3.43-1.71,3.43-4.57,0-2.53-.93-4.23-3.37-4.23h-1.77Z" transform="translate(-280 -79)"/><path class="cls-2" d="M1531.63,588.14H1536v3h-4.33Zm0,4.45H1536v11.63h-4.33Z" transform="translate(-280 -79)"/><path class="cls-2" d="M1538.47,595.93c0-1.12,0-2.31,0-3.34h4.23c0,.36.1,1.38.1,1.89a3.63,3.63,0,0,1,3.58-2.18v4c-2.45-.1-3.55.45-3.55,3.18v4.78h-4.33Z" transform="translate(-280 -79)"/><path class="cls-2" d="M1551.75,599.26c0,1.17.46,2.35,1.73,2.35a1.37,1.37,0,0,0,1.54-1.05h4.25c-.42,1.55-1.74,4-5.86,4-4.4,0-6-3-6-6,0-3.5,1.85-6.2,6.09-6.2,4.51,0,5.88,3.06,5.88,6a7.79,7.79,0,0,1,0,1ZM1555,597c0-1.08-.33-2-1.57-2s-1.6.85-1.67,2Z" transform="translate(-280 -79)"/><path class="cls-2" d="M1572.54,600.19c-.35,2.1-1.71,4.32-5.72,4.32s-5.9-2.69-5.9-6c0-3.5,2.17-6.21,6-6.21,4.39,0,5.49,3,5.57,4.37h-4.13c-.11-.82-.47-1.47-1.42-1.47s-1.64,1-1.64,3.16c0,2.4.6,3.28,1.62,3.28s1.26-.67,1.45-1.45Z" transform="translate(-280 -79)"/><path class="cls-2" d="M1573.46,592.59h1.68v-3h4.28v3h2v2.91h-2v5c0,.72.23,1,1.14,1,.16,0,.37,0,.6,0v2.67a9.6,9.6,0,0,1-2.52.27c-2.75,0-3.52-1.34-3.52-3.54V595.5h-1.66Z" transform="translate(-280 -79)"/><path class="cls-2" d="M1594.9,598.39c0,3.63-2.26,6.12-6.26,6.12s-6.17-2.71-6.17-6.08,2.13-6.13,6.31-6.13A5.75,5.75,0,0,1,1594.9,598.39Zm-8,0c0,2.22.66,3.19,1.82,3.19s1.75-1,1.75-3.15c0-2.4-.6-3.22-1.78-3.22S1586.89,596,1586.89,598.41Z" transform="translate(-280 -79)"/><path class="cls-2" d="M1596.82,595.93c0-1.12,0-2.31,0-3.34H1601a17.37,17.37,0,0,1,.11,1.89,3.63,3.63,0,0,1,3.58-2.18v4c-2.45-.1-3.56.45-3.56,3.18v4.78h-4.33Z" transform="translate(-280 -79)"/><path class="cls-2" d="M1623,588.14v12.57c0,1.16,0,2.51,0,3.51h-4.19a9.75,9.75,0,0,1-.15-1.11,3.42,3.42,0,0,1-3.16,1.4c-3.06,0-4.71-2.62-4.71-6s1.91-6.18,5.18-6.18a3.18,3.18,0,0,1,2.68,1v-5.13Zm-7.75,10.23c0,2,.59,3.09,1.81,3.09,1.63,0,1.78-1.48,1.78-3.07,0-1.95-.18-3.08-1.73-3.08C1615.86,595.31,1615.22,596.3,1615.22,598.37Z" transform="translate(-280 -79)"/><path class="cls-2" d="M1629.22,599.26c0,1.17.45,2.35,1.73,2.35a1.37,1.37,0,0,0,1.54-1.05h4.25c-.42,1.55-1.74,4-5.86,4-4.4,0-6-3-6-6,0-3.5,1.86-6.2,6.1-6.2,4.51,0,5.88,3.06,5.88,6,0,.39,0,.68,0,1Zm3.29-2.26c0-1.08-.33-2-1.57-2s-1.6.85-1.67,2Z" transform="translate(-280 -79)"/><path class="cls-2" d="M1658.66,596.57c0,4.32-2.6,7.94-7.84,7.94s-7.63-3.6-7.63-7.92,2.73-7.94,7.86-7.94C1655.87,588.65,1658.66,592,1658.66,596.57Zm-10.85-.05c0,2.81.94,4.76,3.15,4.76s3.1-2.07,3.1-4.68c0-2.79-.82-4.72-3.16-4.72C1648.73,591.88,1647.81,593.67,1647.81,596.52Z" transform="translate(-280 -79)"/><path class="cls-2" d="M1665,603.41v5.08h-4.31V595.72c0-1.05,0-2.32,0-3.13h4.21a10.5,10.5,0,0,1,.11,1.3,3.64,3.64,0,0,1,3.26-1.59c2.45,0,4.56,2,4.56,5.83,0,4.3-2.43,6.38-5.11,6.38A3.16,3.16,0,0,1,1665,603.41Zm3.4-5.11c0-2.15-.65-2.95-1.76-2.95-1.36,0-1.78.94-1.78,3.11,0,2,.42,3,1.68,3S1668.35,600.53,1668.35,598.3Z" transform="translate(-280 -79)"/><path class="cls-2" d="M1678.61,599.26c0,1.17.45,2.35,1.73,2.35a1.37,1.37,0,0,0,1.54-1.05h4.25c-.42,1.55-1.74,4-5.86,4-4.4,0-6-3-6-6,0-3.5,1.86-6.2,6.1-6.2,4.51,0,5.88,3.06,5.88,6,0,.39,0,.68,0,1Zm3.29-2.26c0-1.08-.33-2-1.57-2s-1.6.85-1.67,2Z" transform="translate(-280 -79)"/><path class="cls-2" d="M1688.19,595.93c0-1.12,0-2.31,0-3.34h4.23c0,.36.1,1.38.1,1.89a3.63,3.63,0,0,1,3.58-2.18v4c-2.45-.1-3.55.45-3.55,3.18v4.78h-4.33Z" transform="translate(-280 -79)"/><path class="cls-2" d="M1708.14,600.77a32.58,32.58,0,0,0,.14,3.45h-4a5,5,0,0,1-.18-1.07,3.68,3.68,0,0,1-3.28,1.36c-2.61,0-4-1.64-4-3.72,0-2.73,2.19-3.91,5.74-3.91H1704v-.65c0-.74-.26-1.29-1.31-1.29s-1.23.45-1.33,1.2h-4c.15-1.94,1.31-3.85,5.44-3.84,3.82,0,5.37,1.49,5.37,4.3Zm-4.17-1.71h-1c-1.49,0-2,.52-2,1.38a1.16,1.16,0,0,0,1.27,1.23c1.47,0,1.67-1,1.67-2.25Z" transform="translate(-280 -79)"/><path class="cls-2" d="M1721.68,600.19c-.34,2.1-1.71,4.32-5.72,4.32s-5.89-2.69-5.89-6c0-3.5,2.17-6.21,6-6.21,4.38,0,5.49,3,5.56,4.37h-4.12c-.12-.82-.47-1.47-1.42-1.47s-1.65,1-1.65,3.16c0,2.4.61,3.28,1.62,3.28s1.27-.67,1.46-1.45Z" transform="translate(-280 -79)"/><path class="cls-2" d="M1723.44,588.14h4.33v3h-4.33Zm0,4.45h4.33v11.63h-4.33Z" transform="translate(-280 -79)"/><path class="cls-2" d="M1742.14,598.39c0,3.63-2.27,6.12-6.26,6.12s-6.18-2.71-6.18-6.08,2.14-6.13,6.32-6.13A5.75,5.75,0,0,1,1742.14,598.39Zm-8,0c0,2.22.66,3.19,1.81,3.19s1.76-1,1.76-3.15c0-2.4-.6-3.22-1.78-3.22S1734.13,596,1734.13,598.41Z" transform="translate(-280 -79)"/><path class="cls-2" d="M1744.08,595.6c0-1,0-2.09,0-3h4.23a9.89,9.89,0,0,1,.13,1.28,3.75,3.75,0,0,1,3.31-1.57c2.33,0,3.81,1.58,3.81,4.43v7.49h-4.32v-7c0-1.12-.33-1.75-1.32-1.75s-1.48.47-1.48,2.11v6.63h-4.32Z" transform="translate(-280 -79)"/><path class="cls-2" d="M1761.77,599.26c0,1.17.45,2.35,1.72,2.35a1.37,1.37,0,0,0,1.54-1.05h4.25c-.42,1.55-1.74,4-5.86,4-4.4,0-6-3-6-6,0-3.5,1.85-6.2,6.09-6.2,4.51,0,5.88,3.06,5.88,6a7.79,7.79,0,0,1,0,1Zm3.28-2.26c0-1.08-.33-2-1.57-2s-1.6.85-1.67,2Z" transform="translate(-280 -79)"/><path class="cls-2" d="M1774.63,600.63a1.59,1.59,0,0,0,1.74,1.16c.86,0,1.23-.27,1.23-.8s-.52-.78-2-1.13c-4-.9-4.58-2.22-4.58-3.86s1.18-3.7,5.16-3.7c3.8,0,5.16,2,5.27,3.59h-3.88c-.09-.41-.34-1-1.51-1-.78,0-1,.32-1,.72s.37.65,2.27,1.07c3.71.83,4.51,2.13,4.51,4,0,2.08-1.52,3.88-5.5,3.88-3.8,0-5.39-1.82-5.63-3.88Z" transform="translate(-280 -79)"/><path class="cls-2" d="M1128.88,590.58h7c5.22,0,8.24,3.3,8.24,8s-2.94,8.37-8.31,8.37h-7Zm4.81,12.9h1.84c2.61,0,3.67-1.82,3.67-4.89,0-2.72-1-4.54-3.61-4.54h-1.9Z" transform="translate(-280 -79)"/><path class="cls-2" d="M1146.46,589.73h4.64V593h-4.64Zm0,4.76h4.64V607h-4.64Z" transform="translate(-280 -79)"/><path class="cls-2" d="M1153.79,598.07c0-1.19,0-2.47,0-3.58h4.53c0,.39.11,1.48.11,2a3.86,3.86,0,0,1,3.83-2.33v4.24c-2.62-.12-3.8.48-3.8,3.4V607h-4.64Z" transform="translate(-280 -79)"/><path class="cls-2" d="M1168,601.64c0,1.26.49,2.52,1.85,2.52a1.47,1.47,0,0,0,1.65-1.13h4.56c-.46,1.66-1.87,4.23-6.28,4.23-4.71,0-6.45-3.17-6.45-6.43,0-3.76,2-6.64,6.53-6.64,4.83,0,6.31,3.27,6.31,6.38a8.74,8.74,0,0,1,0,1.07Zm3.52-2.42c0-1.17-.35-2.15-1.68-2.15s-1.71.91-1.79,2.15Z" transform="translate(-280 -79)"/><path class="cls-2" d="M1190.29,602.64c-.37,2.25-1.83,4.62-6.13,4.62s-6.31-2.88-6.31-6.42c0-3.75,2.32-6.65,6.48-6.65,4.7,0,5.88,3.16,6,4.67h-4.41c-.13-.88-.51-1.57-1.53-1.57s-1.76,1.1-1.76,3.38c0,2.57.65,3.52,1.74,3.52s1.35-.72,1.55-1.55Z" transform="translate(-280 -79)"/><path class="cls-2" d="M1191.28,594.49h1.8v-3.23h4.59v3.23h2.19v3.13h-2.19V603c0,.77.24,1.06,1.22,1.06.17,0,.4,0,.64,0v2.86a10.12,10.12,0,0,1-2.7.29c-2.95,0-3.78-1.44-3.78-3.8v-5.74h-1.77Z" transform="translate(-280 -79)"/><path class="cls-2" d="M1214.25,600.71c0,3.89-2.42,6.55-6.71,6.55s-6.61-2.9-6.61-6.51,2.29-6.56,6.76-6.56A6.15,6.15,0,0,1,1214.25,600.71Zm-8.57,0c0,2.38.7,3.42,1.94,3.42s1.88-1.06,1.88-3.38c0-2.57-.65-3.45-1.91-3.45S1205.68,598.15,1205.68,600.73Z" transform="translate(-280 -79)"/><path class="cls-2" d="M1216.31,598.07c0-1.19,0-2.47,0-3.58h4.53a19.83,19.83,0,0,1,.12,2,3.86,3.86,0,0,1,3.83-2.33v4.24c-2.63-.12-3.81.48-3.81,3.4V607h-4.64Z" transform="translate(-280 -79)"/><path class="cls-2" d="M1244.32,589.73v13.46c0,1.25,0,2.69,0,3.77h-4.49a11.93,11.93,0,0,1-.16-1.19,3.69,3.69,0,0,1-3.39,1.49c-3.28,0-5-2.81-5-6.46s2-6.61,5.54-6.61c1.48,0,2.53.45,2.87,1v-5.49Zm-8.3,11c0,2.18.64,3.31,1.94,3.31,1.75,0,1.91-1.59,1.91-3.29,0-2.1-.19-3.3-1.86-3.3C1236.71,597.41,1236,598.47,1236,600.69Z" transform="translate(-280 -79)"/><path class="cls-2" d="M1251,601.64c0,1.26.48,2.52,1.85,2.52a1.45,1.45,0,0,0,1.64-1.13h4.56c-.45,1.66-1.87,4.23-6.28,4.23-4.71,0-6.44-3.17-6.44-6.43,0-3.76,2-6.64,6.52-6.64,4.83,0,6.31,3.27,6.31,6.38a8.74,8.74,0,0,1,0,1.07Zm3.51-2.42c0-1.17-.35-2.15-1.67-2.15s-1.72.91-1.8,2.15Z" transform="translate(-280 -79)"/><path class="cls-2" d="M1280.41,601.61c0-2.56,0-5.86.13-7.8h-.13c-.69,3.51-1.79,8.38-3,13.15h-3.84c-.94-4.63-2-9.5-2.66-13.15h-.14c.14,1.93.22,5.13.22,7.93V607h-4.27V590.58h6.91c.81,3.31,1.75,8.12,2.12,10.54h.08c.42-2.64,1.52-7,2.47-10.54H1285V607h-4.61Z" transform="translate(-280 -79)"/><path class="cls-2" d="M1299.19,603.26a36.58,36.58,0,0,0,.15,3.7h-4.28a4.77,4.77,0,0,1-.19-1.15,4,4,0,0,1-3.52,1.45c-2.8,0-4.31-1.76-4.31-4,0-2.93,2.35-4.19,6.16-4.19h1.53v-.69c0-.8-.29-1.39-1.4-1.39s-1.33.48-1.44,1.29h-4.28c.17-2.08,1.4-4.13,5.83-4.11,4.09,0,5.75,1.59,5.75,4.6Zm-4.46-1.84h-1c-1.6,0-2.12.56-2.12,1.48a1.24,1.24,0,0,0,1.36,1.33c1.57,0,1.79-1.08,1.79-2.42Z" transform="translate(-280 -79)"/><path class="cls-2" d="M1301.86,598.07c0-1.19,0-2.47,0-3.58h4.53a20,20,0,0,1,.11,2,3.88,3.88,0,0,1,3.84-2.33v4.24c-2.63-.12-3.81.48-3.81,3.4V607h-4.64Z" transform="translate(-280 -79)"/><path class="cls-2" d="M1316.7,599.25c.74-1.19,1.93-2.89,3.25-4.76h5.21l-3.94,4.67c.41.93,3.85,6.9,4.26,7.8h-5.21c-.1-.33-2.2-4.65-2.27-4.88l-1.3,1.33V607h-4.64V589.73h4.64Z" transform="translate(-280 -79)"/><path class="cls-2" d="M1330.2,601.64c0,1.26.48,2.52,1.85,2.52a1.47,1.47,0,0,0,1.65-1.13h4.55c-.45,1.66-1.86,4.23-6.28,4.23-4.71,0-6.44-3.17-6.44-6.43,0-3.76,2-6.64,6.53-6.64,4.83,0,6.3,3.27,6.3,6.38a8.88,8.88,0,0,1,0,1.07Zm3.52-2.42c0-1.17-.35-2.15-1.68-2.15s-1.72.91-1.79,2.15Z" transform="translate(-280 -79)"/><path class="cls-2" d="M1339.36,594.49h1.79v-3.23h4.59v3.23h2.19v3.13h-2.19V603c0,.77.24,1.06,1.22,1.06.17,0,.4,0,.65,0v2.86a10.24,10.24,0,0,1-2.71.29c-3,0-3.77-1.44-3.77-3.8v-5.74h-1.77Z" transform="translate(-280 -79)"/><path class="cls-2" d="M1349.62,589.73h4.63V593h-4.63Zm0,4.76h4.63V607h-4.63Z" transform="translate(-280 -79)"/><path class="cls-2" d="M1357,597.72c0-1.08,0-2.24,0-3.23h4.53a11.53,11.53,0,0,1,.14,1.37,4,4,0,0,1,3.55-1.67c2.5,0,4.08,1.68,4.08,4.73v8h-4.63v-7.5c0-1.2-.35-1.87-1.42-1.87s-1.58.51-1.58,2.26V607H1357Z" transform="translate(-280 -79)"/><path class="cls-2" d="M1384.25,605.1c0,4.08-1.45,6.66-6.7,6.66-5,0-5.89-2.69-6-4.08h4.58c.17.65.57,1.11,1.62,1.11,1.6,0,1.93-1,1.93-3v-.66a3.61,3.61,0,0,1-3.35,1.57c-3.27,0-5-2.68-5-6,0-3.89,2.23-6.54,5.35-6.54,2,0,2.86.88,3.05,1.45,0-.31.11-.94.14-1.15h4.48c0,1,0,2.13,0,3.58Zm-8.24-4.6c0,1.88.7,3,1.89,3,1.55,0,1.91-1.17,1.91-3s-.2-3.09-1.84-3.09C1376.88,597.38,1376,598.24,1376,600.5Z" transform="translate(-280 -79)"/><path class="cls-2" d="M316.11,590.46h7.51c5.56,0,8.79,3.51,8.79,8.54s-3.15,8.93-8.87,8.93h-7.43Zm5.13,13.76h2c2.78,0,3.92-2,3.92-5.22,0-2.89-1.06-4.84-3.86-4.84h-2Z" transform="translate(-280 -79)"/><path class="cls-2" d="M334.86,589.55h4.95V593h-4.95Zm0,5.08h4.95v13.3h-4.95Z" transform="translate(-280 -79)"/><path class="cls-2" d="M342.67,598.45c0-1.28,0-2.64,0-3.82h4.84c.06.41.12,1.58.12,2.16a4.11,4.11,0,0,1,4.08-2.48v4.52c-2.8-.12-4.06.52-4.06,3.63v5.47h-4.95Z" transform="translate(-280 -79)"/><path class="cls-2" d="M357.86,602.26c0,1.34.52,2.68,2,2.68a1.56,1.56,0,0,0,1.76-1.2h4.86c-.48,1.77-2,4.51-6.7,4.51-5,0-6.87-3.38-6.87-6.86,0-4,2.12-7.08,7-7.08,5.16,0,6.73,3.48,6.73,6.81a10,10,0,0,1-.05,1.14Zm3.75-2.58c0-1.25-.37-2.3-1.79-2.3s-1.83,1-1.91,2.3Z" transform="translate(-280 -79)"/><path class="cls-2" d="M367.63,594.63h1.91v-3.45h4.9v3.45h2.33V598h-2.33v5.71c0,.83.26,1.14,1.3,1.14a6,6,0,0,0,.69,0v3.06a11.09,11.09,0,0,1-2.89.3c-3.14,0-4-1.53-4-4V598h-1.89Z" transform="translate(-280 -79)"/><path class="cls-2" d="M392.13,601.26c0,4.15-2.59,7-7.16,7s-7.05-3.09-7.05-6.94c0-4,2.44-7,7.21-7C389.52,594.31,392.13,597.23,392.13,601.26Zm-9.15,0c0,2.53.75,3.64,2.07,3.64s2-1.13,2-3.6c0-2.74-.69-3.68-2-3.68S383,598.53,383,601.29Z" transform="translate(-280 -79)"/><path class="cls-2" d="M394.33,598.45c0-1.28,0-2.64,0-3.82h4.84c.06.41.12,1.58.12,2.16a4.12,4.12,0,0,1,4.09-2.48v4.52c-2.8-.12-4.07.52-4.07,3.63v5.47h-4.94Z" transform="translate(-280 -79)"/><path class="cls-2" d="M424.2,589.55v14.36c0,1.33,0,2.87,0,4h-4.79c-.07-.39-.14-.94-.17-1.27a3.92,3.92,0,0,1-3.61,1.59c-3.5,0-5.38-3-5.38-6.89,0-4.05,2.18-7.05,5.92-7.05,1.57,0,2.69.48,3.06,1.1v-5.86Zm-8.85,11.69c0,2.33.68,3.54,2.07,3.54,1.87,0,2-1.7,2-3.52,0-2.23-.2-3.51-2-3.51C416.09,597.75,415.35,598.87,415.35,601.24Z" transform="translate(-280 -79)"/><path class="cls-2" d="M431.35,602.26c0,1.34.52,2.68,2,2.68a1.57,1.57,0,0,0,1.76-1.2h4.85c-.48,1.77-2,4.51-6.7,4.51-5,0-6.87-3.38-6.87-6.86,0-4,2.12-7.08,7-7.08,5.15,0,6.72,3.48,6.72,6.81a10,10,0,0,1-.05,1.14Zm3.76-2.58c0-1.25-.38-2.3-1.79-2.3s-1.83,1-1.92,2.3Z" transform="translate(-280 -79)"/><path class="cls-2" d="M451.59,594.25h-5v-3.79h15.08v3.79h-4.95v13.68h-5.13Z" transform="translate(-280 -79)"/><path class="cls-2" d="M465.78,602.26c0,1.34.51,2.68,2,2.68a1.56,1.56,0,0,0,1.76-1.2h4.86c-.48,1.77-2,4.51-6.7,4.51-5,0-6.87-3.38-6.87-6.86,0-4,2.12-7.08,7-7.08,5.15,0,6.73,3.48,6.73,6.81a10,10,0,0,1-.05,1.14Zm3.75-2.58c0-1.25-.37-2.3-1.79-2.3s-1.83,1-1.91,2.3Z" transform="translate(-280 -79)"/><path class="cls-2" d="M489.53,603.32c-.39,2.4-1.95,4.93-6.54,4.93s-6.74-3.07-6.74-6.85c0-4,2.49-7.09,6.92-7.09,5,0,6.28,3.38,6.36,5h-4.71c-.13-.93-.54-1.67-1.63-1.67-1.24,0-1.87,1.17-1.87,3.61,0,2.74.68,3.75,1.85,3.75,1,0,1.44-.77,1.66-1.66Z" transform="translate(-280 -79)"/><path class="cls-2" d="M491.55,598.08c0-1.15,0-2.4,0-3.45h4.83a11.09,11.09,0,0,1,.15,1.46,4.28,4.28,0,0,1,3.78-1.78c2.67,0,4.35,1.8,4.35,5.05v8.57h-4.94v-8c0-1.28-.37-2-1.51-2s-1.68.55-1.68,2.41v7.59h-4.95Z" transform="translate(-280 -79)"/><path class="cls-2" d="M521,601.26c0,4.15-2.59,7-7.16,7s-7.05-3.09-7.05-6.94c0-4,2.44-7,7.21-7C518.39,594.31,521,597.23,521,601.26Zm-9.15,0c0,2.53.75,3.64,2.07,3.64s2-1.13,2-3.6c0-2.74-.69-3.68-2-3.68S511.85,598.53,511.85,601.29Z" transform="translate(-280 -79)"/><path class="cls-2" d="M523.2,607.93V589.55h4.95v18.38Z" transform="translate(-280 -79)"/><path class="cls-2" d="M544.57,601.26c0,4.15-2.59,7-7.16,7s-7-3.09-7-6.94c0-4,2.44-7,7.21-7C542,594.31,544.57,597.23,544.57,601.26Zm-9.15,0c0,2.53.75,3.64,2.07,3.64s2-1.13,2-3.6c0-2.74-.69-3.68-2-3.68S535.42,598.53,535.42,601.29Z" transform="translate(-280 -79)"/><path class="cls-2" d="M560.11,606c0,4.35-1.54,7.11-7.14,7.11-5.35,0-6.28-2.87-6.43-4.36h4.89a1.53,1.53,0,0,0,1.73,1.19c1.71,0,2.06-1,2.06-3.2V606a3.83,3.83,0,0,1-3.57,1.68c-3.49,0-5.39-2.86-5.39-6.37,0-4.15,2.38-7,5.71-7,2.12,0,3,.94,3.25,1.55,0-.33.11-1,.15-1.23h4.78c0,1,0,2.27,0,3.82Zm-8.79-4.9c0,2,.76,3.17,2,3.17,1.66,0,2-1.25,2-3.21s-.22-3.3-2-3.3C552.25,597.71,551.32,598.63,551.32,601.05Z" transform="translate(-280 -79)"/><path class="cls-2" d="M562.87,594.63h5v13.3h-5Zm8.8-5.38-4.46,3.81h-3.86l3-3.81Z" transform="translate(-280 -79)"/><path class="cls-2" d="M582.86,604a37.67,37.67,0,0,0,.16,3.95h-4.57a5.27,5.27,0,0,1-.2-1.23c-.64.83-1.62,1.55-3.76,1.55-3,0-4.59-1.87-4.59-4.24,0-3.13,2.5-4.48,6.57-4.48h1.63v-.73c0-.85-.3-1.48-1.5-1.48s-1.41.51-1.53,1.37h-4.56c.17-2.22,1.49-4.4,6.22-4.38,4.36,0,6.13,1.69,6.13,4.9Zm-4.76-2H577c-1.7,0-2.26.59-2.26,1.58a1.32,1.32,0,0,0,1.45,1.41c1.67,0,1.91-1.15,1.91-2.58Z" transform="translate(-280 -79)"/><path class="cls-2" d="M325.81,721.09h-5V717.3h15.07v3.79h-4.95v13.69h-5.13Z" transform="translate(-280 -79)"/><path class="cls-2" d="M340,729.1c0,1.34.52,2.69,2,2.69a1.56,1.56,0,0,0,1.75-1.2h4.86c-.48,1.77-2,4.51-6.7,4.51-5,0-6.87-3.39-6.87-6.86,0-4,2.12-7.09,7-7.09,5.16,0,6.73,3.49,6.73,6.81a9.86,9.86,0,0,1,0,1.14Zm7.77-13-4.46,3.81h-3.85l3-3.81Zm-4,10.43c0-1.24-.37-2.29-1.79-2.29s-1.83,1-1.91,2.29Z" transform="translate(-280 -79)"/><path class="cls-2" d="M363.75,730.17c-.39,2.39-1.95,4.93-6.53,4.93s-6.74-3.07-6.74-6.86c0-4,2.48-7.09,6.91-7.09,5,0,6.28,3.38,6.36,5H359c-.13-.94-.54-1.68-1.62-1.68-1.25,0-1.88,1.18-1.88,3.61,0,2.74.69,3.75,1.85,3.75s1.45-.76,1.66-1.65Z" transform="translate(-280 -79)"/><path class="cls-2" d="M365.78,724.92c0-1.15,0-2.39,0-3.45h4.83a11.07,11.07,0,0,1,.15,1.47,4.31,4.31,0,0,1,3.79-1.79c2.66,0,4.34,1.8,4.34,5.06v8.57h-4.93v-8c0-1.28-.37-2-1.51-2s-1.69.54-1.69,2.41v7.59h-4.94Z" transform="translate(-280 -79)"/><path class="cls-2" d="M381.62,716.39h4.94v3.45h-4.94Zm0,5.08h4.94v13.31h-4.94Z" transform="translate(-280 -79)"/><path class="cls-2" d="M402.09,730.17c-.4,2.39-2,4.93-6.54,4.93s-6.74-3.07-6.74-6.86c0-4,2.48-7.09,6.92-7.09,5,0,6.27,3.38,6.36,5h-4.72c-.13-.94-.53-1.68-1.62-1.68-1.25,0-1.88,1.18-1.88,3.61,0,2.74.69,3.75,1.85,3.75,1,0,1.45-.76,1.66-1.65Z" transform="translate(-280 -79)"/><path class="cls-2" d="M417.78,728.11c0,4.15-2.59,7-7.16,7s-7.05-3.1-7.05-6.94c0-4,2.44-7,7.21-7A6.57,6.57,0,0,1,417.78,728.11Zm-9.15,0c0,2.54.74,3.65,2.07,3.65s2-1.13,2-3.6c0-2.75-.69-3.68-2-3.68S408.63,725.38,408.63,728.13Z" transform="translate(-280 -79)"/><path class="cls-2" d="M426,717.3h8.1c3.94,0,6.59,2.19,6.59,5.61,0,3.92-3,5.73-6.71,5.73h-2.93v6.14H426Zm5.05,7.73h2.09c1.45,0,2.48-.6,2.48-2.06s-1-2.08-2.47-2.08h-2.1Z" transform="translate(-280 -79)"/><path class="cls-2" d="M442.8,725.29c0-1.27,0-2.63,0-3.82h4.84c.06.42.12,1.58.12,2.16a4.14,4.14,0,0,1,4.08-2.48v4.52c-2.79-.12-4.06.52-4.06,3.64v5.47H442.8Z" transform="translate(-280 -79)"/><path class="cls-2" d="M467.22,728.11c0,4.15-2.59,7-7.16,7S453,732,453,728.16c0-4,2.44-7,7.21-7A6.57,6.57,0,0,1,467.22,728.11Zm-9.15,0c0,2.54.75,3.65,2.07,3.65s2-1.13,2-3.6c0-2.75-.69-3.68-2-3.68S458.07,725.38,458.07,728.13Z" transform="translate(-280 -79)"/><path class="cls-2" d="M482.77,732.79c0,4.35-1.55,7.11-7.15,7.11-5.35,0-6.28-2.87-6.43-4.35h4.89a1.52,1.52,0,0,0,1.73,1.18c1.71,0,2.07-1,2.07-3.2v-.7a3.87,3.87,0,0,1-3.58,1.67c-3.49,0-5.39-2.86-5.39-6.37,0-4.15,2.38-7,5.71-7,2.12,0,3.05.94,3.26,1.56,0-.34.1-1,.14-1.24h4.78c0,1,0,2.28,0,3.82Zm-8.8-4.9c0,2,.76,3.17,2,3.17,1.66,0,2-1.24,2-3.21s-.22-3.29-2-3.29C474.91,724.56,474,725.47,474,727.89Z" transform="translate(-280 -79)"/><path class="cls-2" d="M485.53,725.29c0-1.27,0-2.63,0-3.82h4.84c.06.42.12,1.58.12,2.16a4.14,4.14,0,0,1,4.09-2.48v4.52c-2.8-.12-4.07.52-4.07,3.64v5.47h-4.94Z" transform="translate(-280 -79)"/><path class="cls-2" d="M508.32,730.83c0,1.5.08,3.5.16,3.95h-4.56a6.08,6.08,0,0,1-.21-1.23c-.63.82-1.61,1.55-3.75,1.55-3,0-4.59-1.88-4.59-4.24,0-3.13,2.5-4.48,6.56-4.48h1.64v-.74c0-.85-.31-1.47-1.5-1.47s-1.41.51-1.53,1.37H496c.18-2.22,1.5-4.41,6.23-4.39,4.36,0,6.12,1.7,6.12,4.91Zm-4.75-2h-1.1c-1.7,0-2.26.6-2.26,1.58a1.32,1.32,0,0,0,1.44,1.41c1.68,0,1.92-1.15,1.92-2.58Z" transform="translate(-280 -79)"/><path class="cls-2" d="M511.17,725.11c0-1.22,0-2.5,0-3.64h4.74c.05.31.13.95.15,1.42a4.48,4.48,0,0,1,3.75-1.74,3.51,3.51,0,0,1,3.39,1.83,4.88,4.88,0,0,1,4.08-1.83c2.48,0,4.31,1.56,4.31,5v8.66h-4.83v-8.23c0-1-.33-1.79-1.39-1.79s-1.52.72-1.52,2.25v7.77H519V726.6c0-1-.25-1.82-1.36-1.82s-1.55.62-1.55,2.34v7.66h-4.88Z" transform="translate(-280 -79)"/><path class="cls-2" d="M546.58,730.83a37.82,37.82,0,0,0,.16,3.95h-4.57a6.08,6.08,0,0,1-.2-1.23c-.63.82-1.61,1.55-3.75,1.55-3,0-4.6-1.88-4.6-4.24,0-3.13,2.51-4.48,6.57-4.48h1.63v-.74c0-.85-.3-1.47-1.49-1.47s-1.42.51-1.53,1.37h-4.57c.18-2.22,1.49-4.41,6.22-4.39,4.36,0,6.13,1.7,6.13,4.91Zm-4.76-2h-1.09c-1.71,0-2.27.6-2.27,1.58a1.32,1.32,0,0,0,1.45,1.41c1.68,0,1.91-1.15,1.91-2.58Z" transform="translate(-280 -79)"/><path class="cls-2" d="M562.69,716.39v14.36c0,1.34,0,2.88,0,4h-4.79c-.08-.39-.14-.95-.17-1.27a3.94,3.94,0,0,1-3.62,1.59c-3.49,0-5.37-3-5.37-6.89,0-4.05,2.18-7.06,5.91-7.06,1.57,0,2.7.48,3.06,1.11v-5.87Zm-8.86,11.7c0,2.33.69,3.53,2.08,3.53,1.86,0,2-1.7,2-3.51,0-2.24-.2-3.52-2-3.52C554.57,724.59,553.83,725.72,553.83,728.09Z" transform="translate(-280 -79)"/><path class="cls-2" d="M579.07,728.11c0,4.15-2.59,7-7.16,7s-7-3.1-7-6.94c0-4,2.44-7,7.21-7A6.57,6.57,0,0,1,579.07,728.11Zm-9.15,0c0,2.54.75,3.65,2.07,3.65s2-1.13,2-3.6c0-2.75-.69-3.68-2-3.68S569.92,725.38,569.92,728.13Z" transform="translate(-280 -79)"/><path class="cls-2" d="M581.27,725.29c0-1.27,0-2.63,0-3.82h4.84c.06.42.12,1.58.12,2.16a4.14,4.14,0,0,1,4.09-2.48v4.52c-2.8-.12-4.06.52-4.06,3.64v5.47h-5Z" transform="translate(-280 -79)"/><path class="cls-2" d="M732.69,717.92h-5v-3.79h15.07v3.79h-4.95v13.69h-5.13Z" transform="translate(-280 -79)"/><path class="cls-2" d="M746.88,725.93c0,1.34.52,2.69,2,2.69a1.57,1.57,0,0,0,1.76-1.2h4.85c-.48,1.77-2,4.51-6.7,4.51-5,0-6.87-3.39-6.87-6.86,0-4,2.12-7.09,7-7.09,5.16,0,6.73,3.49,6.73,6.81a9.86,9.86,0,0,1-.05,1.14Zm7.77-13-4.46,3.81h-3.85l3-3.81Zm-4,10.43c0-1.24-.38-2.29-1.79-2.29s-1.83,1-1.92,2.29Z" transform="translate(-280 -79)"/><path class="cls-2" d="M770.64,727c-.4,2.39-2,4.93-6.54,4.93s-6.74-3.07-6.74-6.86c0-4,2.48-7.09,6.92-7.09,5,0,6.27,3.38,6.36,5h-4.72c-.13-.94-.53-1.68-1.62-1.68-1.25,0-1.88,1.18-1.88,3.61,0,2.74.69,3.75,1.85,3.75s1.45-.76,1.66-1.65Z" transform="translate(-280 -79)"/><path class="cls-2" d="M772.66,721.75c0-1.15,0-2.39,0-3.45h4.83a13,13,0,0,1,.16,1.47,4.27,4.27,0,0,1,3.78-1.79c2.66,0,4.35,1.8,4.35,5.06v8.57H780.8v-8c0-1.28-.37-2-1.51-2s-1.68.54-1.68,2.41v7.59h-5Z" transform="translate(-280 -79)"/><path class="cls-2" d="M788.5,713.22h5v3.45h-5Zm0,5.08h5v13.31h-5Z" transform="translate(-280 -79)"/><path class="cls-2" d="M809,727c-.4,2.39-2,4.93-6.54,4.93s-6.74-3.07-6.74-6.86c0-4,2.48-7.09,6.92-7.09,5,0,6.27,3.38,6.36,5h-4.71c-.14-.94-.54-1.68-1.63-1.68-1.25,0-1.88,1.18-1.88,3.61,0,2.74.69,3.75,1.85,3.75s1.45-.76,1.67-1.65Z" transform="translate(-280 -79)"/><path class="cls-2" d="M824.66,724.94c0,4.15-2.59,7-7.16,7s-7-3.1-7-6.94c0-4,2.44-7,7.21-7A6.57,6.57,0,0,1,824.66,724.94Zm-9.15,0c0,2.54.75,3.65,2.07,3.65s2-1.13,2-3.6c0-2.75-.69-3.68-2-3.68S815.51,722.21,815.51,725Z" transform="translate(-280 -79)"/><path class="cls-2" d="M845.82,713.22v14.36c0,1.34,0,2.88,0,4h-4.79c-.07-.39-.14-1-.17-1.27a3.92,3.92,0,0,1-3.61,1.59c-3.5,0-5.38-3-5.38-6.89,0-4,2.18-7.06,5.92-7.06,1.57,0,2.69.48,3.06,1.11v-5.87ZM837,724.92c0,2.33.68,3.53,2.07,3.53,1.87,0,2-1.7,2-3.51,0-2.24-.2-3.52-2-3.52C837.71,721.42,837,722.55,837,724.92Z" transform="translate(-280 -79)"/><path class="cls-2" d="M853,725.93c0,1.34.51,2.69,2,2.69a1.57,1.57,0,0,0,1.76-1.2h4.85c-.48,1.77-2,4.51-6.7,4.51-5,0-6.87-3.39-6.87-6.86,0-4,2.12-7.09,7-7.09,5.15,0,6.72,3.49,6.72,6.81a9.86,9.86,0,0,1,0,1.14Zm3.75-2.58c0-1.24-.38-2.29-1.79-2.29s-1.83,1-1.92,2.29Z" transform="translate(-280 -79)"/><path class="cls-2" d="M873.56,726.31c.29,1.53,1.36,2.17,3,2.17s2.27-.55,2.27-1.56-.78-1.58-3.54-2.24c-5.15-1.25-6.18-3.13-6.18-5.49,0-2.93,2.15-5.39,7-5.39,5.05,0,7.12,2.57,7.36,5.33h-4.94c-.14-.94-.62-1.9-2.43-1.9-1.18,0-1.9.45-1.9,1.39s.64,1.32,3.34,2c5.38,1.34,6.45,3.28,6.45,5.77,0,3.28-2.53,5.56-7.66,5.56-4.83,0-7.39-2.26-7.78-5.62Z" transform="translate(-280 -79)"/><path class="cls-2" d="M890.75,725.93c0,1.34.51,2.69,2,2.69a1.57,1.57,0,0,0,1.76-1.2h4.86c-.49,1.77-2,4.51-6.7,4.51-5,0-6.87-3.39-6.87-6.86,0-4,2.12-7.09,7-7.09,5.15,0,6.73,3.49,6.73,6.81a9.86,9.86,0,0,1-.05,1.14Zm3.75-2.58c0-1.24-.37-2.29-1.79-2.29s-1.83,1-1.91,2.29Z" transform="translate(-280 -79)"/><path class="cls-2" d="M901.64,731.61V713.22h5v18.39Z" transform="translate(-280 -79)"/><path class="cls-2" d="M913.78,725.93c0,1.34.52,2.69,2,2.69a1.55,1.55,0,0,0,1.75-1.2h4.86c-.48,1.77-2,4.51-6.7,4.51-5,0-6.87-3.39-6.87-6.86,0-4,2.12-7.09,7-7.09,5.16,0,6.73,3.49,6.73,6.81a9.86,9.86,0,0,1,0,1.14Zm3.76-2.58c0-1.24-.38-2.29-1.79-2.29s-1.83,1-1.92,2.29Z" transform="translate(-280 -79)"/><path class="cls-2" d="M937.54,727c-.4,2.39-2,4.93-6.54,4.93s-6.74-3.07-6.74-6.86c0-4,2.48-7.09,6.91-7.09,5,0,6.28,3.38,6.37,5h-4.72c-.13-.94-.54-1.68-1.62-1.68-1.25,0-1.88,1.18-1.88,3.61,0,2.74.69,3.75,1.85,3.75s1.45-.76,1.66-1.65Z" transform="translate(-280 -79)"/><path class="cls-2" d="M952.33,727c-.4,2.39-2,4.93-6.54,4.93s-6.74-3.07-6.74-6.86c0-4,2.48-7.09,6.91-7.09,5,0,6.28,3.38,6.37,5h-4.72c-.13-.94-.54-1.68-1.62-1.68-1.25,0-1.88,1.18-1.88,3.61,0,2.74.69,3.75,1.85,3.75,1,0,1.45-.76,1.66-1.65Z" transform="translate(-280 -79)"/><path class="cls-2" d="M954.33,713.22h4.95v3.45h-4.95Zm0,5.08h4.95v13.31h-4.95Z" transform="translate(-280 -79)"/><path class="cls-2" d="M975.7,724.94c0,4.15-2.59,7-7.15,7-4.72,0-7.06-3.1-7.06-6.94,0-4,2.44-7,7.22-7A6.57,6.57,0,0,1,975.7,724.94Zm-1.07-12.11-4.46,3.82h-3.85l3-3.82ZM966.55,725c0,2.54.75,3.65,2.07,3.65s2-1.13,2-3.6c0-2.75-.69-3.68-2-3.68S966.55,722.21,966.55,725Z" transform="translate(-280 -79)"/><path class="cls-2" d="M977.92,721.75c0-1.15,0-2.39,0-3.45h4.83a11.07,11.07,0,0,1,.15,1.47,4.31,4.31,0,0,1,3.79-1.79c2.66,0,4.34,1.8,4.34,5.06v8.57h-4.94v-8c0-1.28-.37-2-1.51-2s-1.68.54-1.68,2.41v7.59h-4.94Z" transform="translate(-280 -79)"/><path class="cls-2" d="M1163,711.58h-5v-3.79h15.07v3.79h-4.95v13.68H1163Z" transform="translate(-280 -79)"/><path class="cls-2" d="M1177.19,719.59c0,1.34.52,2.68,2,2.68a1.54,1.54,0,0,0,1.75-1.19h4.86c-.48,1.76-2,4.5-6.7,4.5-5,0-6.87-3.38-6.87-6.85,0-4,2.12-7.09,7-7.09,5.16,0,6.73,3.49,6.73,6.81a10,10,0,0,1-.05,1.14Zm7.77-13-4.46,3.81h-3.85l3-3.81ZM1181,717c0-1.25-.38-2.3-1.79-2.3s-1.83,1-1.92,2.3Z" transform="translate(-280 -79)"/><path class="cls-2" d="M1201,720.65c-.4,2.4-2,4.93-6.54,4.93s-6.74-3.07-6.74-6.85c0-4,2.48-7.09,6.91-7.09,5,0,6.28,3.38,6.37,5h-4.72c-.13-.93-.54-1.67-1.62-1.67-1.25,0-1.88,1.18-1.88,3.61,0,2.74.69,3.75,1.85,3.75s1.45-.77,1.66-1.66Z" transform="translate(-280 -79)"/><path class="cls-2" d="M1203,715.41c0-1.15,0-2.4,0-3.45h4.83a13,13,0,0,1,.16,1.47,4.27,4.27,0,0,1,3.78-1.79c2.66,0,4.34,1.8,4.34,5.05v8.57h-4.93v-8c0-1.28-.37-2-1.51-2s-1.68.55-1.68,2.42v7.58h-5Z" transform="translate(-280 -79)"/><path class="cls-2" d="M1218.81,706.88h4.94v3.45h-4.94Zm0,5.08h4.94v13.3h-4.94Z" transform="translate(-280 -79)"/><path class="cls-2" d="M1239.28,720.65c-.4,2.4-2,4.93-6.54,4.93s-6.74-3.07-6.74-6.85c0-4,2.48-7.09,6.92-7.09,5,0,6.27,3.38,6.36,5h-4.71c-.14-.93-.54-1.67-1.63-1.67-1.25,0-1.88,1.18-1.88,3.61,0,2.74.69,3.75,1.85,3.75,1,0,1.45-.77,1.67-1.66Z" transform="translate(-280 -79)"/><path class="cls-2" d="M1255,718.59c0,4.16-2.59,7-7.16,7s-7-3.09-7-6.94c0-4,2.44-7,7.21-7A6.57,6.57,0,0,1,1255,718.59Zm-9.15,0c0,2.53.75,3.64,2.07,3.64s2-1.12,2-3.6c0-2.74-.69-3.67-2-3.67S1245.82,715.86,1245.82,718.62Z" transform="translate(-280 -79)"/><path class="cls-2" d="M1276.13,706.88v14.36c0,1.34,0,2.87,0,4h-4.79a12.59,12.59,0,0,1-.16-1.27,3.93,3.93,0,0,1-3.62,1.59c-3.5,0-5.38-3-5.38-6.88,0-4.06,2.18-7.06,5.92-7.06,1.57,0,2.69.48,3.06,1.1v-5.86Zm-8.85,11.7c0,2.33.68,3.53,2.07,3.53,1.87,0,2-1.7,2-3.52,0-2.23-.2-3.51-2-3.51C1268,715.08,1267.28,716.21,1267.28,718.58Z" transform="translate(-280 -79)"/><path class="cls-2" d="M1283.29,719.59c0,1.34.51,2.68,2,2.68a1.56,1.56,0,0,0,1.76-1.19h4.86c-.49,1.76-2,4.5-6.71,4.5-5,0-6.87-3.38-6.87-6.85,0-4,2.12-7.09,7-7.09,5.15,0,6.72,3.49,6.72,6.81a10,10,0,0,1,0,1.14ZM1287,717c0-1.25-.38-2.3-1.79-2.3s-1.83,1-1.92,2.3Z" transform="translate(-280 -79)"/><path class="cls-2" d="M1303.87,720c.3,1.52,1.36,2.16,3,2.16s2.27-.54,2.27-1.55-.78-1.59-3.54-2.25c-5.15-1.25-6.18-3.13-6.18-5.48,0-2.93,2.15-5.39,7-5.39,5.06,0,7.12,2.57,7.37,5.32h-5c-.14-.93-.62-1.89-2.43-1.89-1.18,0-1.9.44-1.9,1.39s.64,1.31,3.34,2c5.38,1.35,6.45,3.29,6.45,5.78,0,3.28-2.53,5.56-7.66,5.56-4.83,0-7.39-2.26-7.78-5.62Z" transform="translate(-280 -79)"/><path class="cls-2" d="M1329.59,718.19h-8v3.28h8.89l-.57,3.79H1316.7V707.79h13.23v3.79h-8.3v2.82h8Z" transform="translate(-280 -79)"/><path class="cls-2" d="M1350,716.51c0,4.94-3,9.08-9,9.08s-8.72-4.11-8.72-9.06,3.12-9.07,9-9.07C1346.82,707.46,1350,711.28,1350,716.51Zm-12.41,0c0,3.21,1.07,5.44,3.6,5.44s3.54-2.37,3.54-5.35c0-3.19-.93-5.4-3.6-5.4C1338.66,711.15,1337.61,713.2,1337.61,716.46Z" transform="translate(-280 -79)"/><path class="cls-2" d="M1362,712c.87,3.38,1.83,7.6,2,9h.09c.27-1.74.85-4.58,1.92-9h4.88l-4,12.53c-1.35,4.28-2.4,5.9-6.6,5.9-.33,0-1.32,0-2-.12v-3.55c.18,0,.61,0,.93,0,1.16,0,1.78-.31,2.13-1.31l-4.72-13.5Z" transform="translate(-280 -79)"/><path class="cls-2" d="M1242,750.41c.29,1.53,1.35,2.17,3,2.17s2.26-.54,2.26-1.56-.77-1.58-3.53-2.24c-5.16-1.25-6.19-3.13-6.19-5.49,0-2.93,2.16-5.38,7-5.38,5.06,0,7.12,2.56,7.37,5.32h-5c-.13-.94-.61-1.9-2.43-1.9-1.17,0-1.89.45-1.89,1.39s.64,1.32,3.33,2c5.39,1.34,6.46,3.28,6.46,5.77,0,3.28-2.53,5.56-7.67,5.56-4.83,0-7.39-2.26-7.78-5.62Z" transform="translate(-280 -79)"/><path class="cls-2" d="M1267.67,748.63h-8v3.28h8.88l-.57,3.8h-13.24V738.23H1268V742h-8.29v2.81h8Z" transform="translate(-280 -79)"/><path class="cls-2" d="M1285.55,750c0-2.73.06-6.25.14-8.32h-.14c-.73,3.75-1.9,8.94-3.18,14h-4.1c-1-4.94-2.15-10.14-2.83-14h-.16c.15,2.06.24,5.47.24,8.46v5.57H1271V738.23h7.37c.87,3.54,1.87,8.66,2.27,11.25h.08c.45-2.81,1.62-7.45,2.63-11.25h7.17v17.48h-4.93Z" transform="translate(-280 -79)"/><path class="cls-2" d="M1609.09,736.13l-1,3.4h-5l5.52-17.47h6.63l5.74,17.47h-5.34l-1.06-3.4Zm4.59-3.79c-.82-2.75-1.5-5.19-1.89-6.89h-.07c-.41,1.88-1.08,4.37-1.78,6.89Z" transform="translate(-280 -79)"/><path class="cls-2" d="M1635.23,735.28c0,1.18,0,3,0,4.25h-4.85a12.63,12.63,0,0,1-.1-1.4,4,4,0,0,1-3.68,1.73c-2.85,0-4.37-1.73-4.37-4.88v-8.75h4.94v7.93c0,1.2.34,2.05,1.46,2.05s1.63-.65,1.63-2.62v-7.36h5Z" transform="translate(-280 -79)"/><path class="cls-2" d="M1651.45,721.15v14.36c0,1.34,0,2.87,0,4h-4.79c-.08-.39-.14-.94-.17-1.27a3.92,3.92,0,0,1-3.62,1.6c-3.49,0-5.37-3-5.37-6.89,0-4.05,2.18-7.06,5.91-7.06,1.57,0,2.69.48,3.06,1.1v-5.86Zm-8.86,11.7c0,2.33.69,3.53,2.07,3.53,1.87,0,2-1.7,2-3.52,0-2.23-.2-3.51-2-3.51C1643.33,729.35,1642.59,730.48,1642.59,732.85Z" transform="translate(-280 -79)"/><path class="cls-2" d="M1654.22,721.15h5v3.45h-5Zm0,5.08h5v13.3h-5Z" transform="translate(-280 -79)"/><path class="cls-2" d="M1661,726.23h1.92v-3.45h4.89v3.45h2.34v3.34h-2.34v5.7c0,.83.26,1.14,1.3,1.14a5.87,5.87,0,0,0,.69,0v3.06a11.06,11.06,0,0,1-2.88.31c-3.15,0-4-1.54-4-4v-6.13H1661Z" transform="translate(-280 -79)"/><path class="cls-2" d="M1685.51,732.87c0,4.15-2.59,7-7.15,7-4.72,0-7.06-3.1-7.06-6.94,0-4,2.44-7,7.21-7A6.57,6.57,0,0,1,1685.51,732.87Zm-9.15,0c0,2.53.75,3.65,2.07,3.65s2-1.13,2-3.61c0-2.74-.69-3.67-2-3.67S1676.36,730.13,1676.36,732.89Z" transform="translate(-280 -79)"/><path class="cls-2" d="M1687.71,730.05c0-1.27,0-2.63,0-3.82h4.84c.06.41.12,1.58.12,2.16a4.14,4.14,0,0,1,4.09-2.48v4.52c-2.8-.12-4.06.52-4.06,3.64v5.46h-5Z" transform="translate(-280 -79)"/><path class="cls-2" d="M337.81,832.08h-5v-3.79h15.07v3.79h-4.95v13.69h-5.13Z" transform="translate(-280 -79)"/><path class="cls-2" d="M352,840.09c0,1.34.52,2.69,2,2.69a1.56,1.56,0,0,0,1.76-1.2h4.86c-.48,1.77-2,4.51-6.7,4.51-5,0-6.87-3.38-6.87-6.86,0-4,2.12-7.09,7-7.09,5.16,0,6.73,3.49,6.73,6.81a9.86,9.86,0,0,1,0,1.14Zm7.77-13-4.46,3.81h-3.86l3-3.81Zm-4,10.43c0-1.24-.37-2.29-1.79-2.29s-1.83,1-1.91,2.29Z" transform="translate(-280 -79)"/><path class="cls-2" d="M375.75,841.16c-.39,2.39-1.95,4.93-6.54,4.93s-6.73-3.07-6.73-6.86c0-4,2.48-7.09,6.91-7.09,5,0,6.28,3.38,6.36,5H371c-.13-.94-.54-1.68-1.63-1.68-1.24,0-1.87,1.18-1.87,3.61,0,2.74.69,3.75,1.85,3.75,1,0,1.44-.76,1.66-1.65Z" transform="translate(-280 -79)"/><path class="cls-2" d="M377.78,835.91c0-1.15,0-2.39,0-3.45h4.83a11.07,11.07,0,0,1,.15,1.47,4.31,4.31,0,0,1,3.79-1.79c2.66,0,4.34,1.8,4.34,5.06v8.57h-4.94v-8c0-1.28-.37-2-1.5-2s-1.69.54-1.69,2.41v7.59h-4.94Z" transform="translate(-280 -79)"/><path class="cls-2" d="M393.61,827.38h4.95v3.45h-4.95Zm0,5.08h4.95v13.31h-4.95Z" transform="translate(-280 -79)"/><path class="cls-2" d="M414.09,841.16c-.4,2.39-2,4.93-6.54,4.93s-6.74-3.07-6.74-6.86c0-4,2.48-7.09,6.91-7.09,5,0,6.28,3.38,6.37,5h-4.72c-.13-.94-.54-1.68-1.62-1.68-1.25,0-1.88,1.18-1.88,3.61,0,2.74.69,3.75,1.85,3.75,1,0,1.45-.76,1.66-1.65Z" transform="translate(-280 -79)"/><path class="cls-2" d="M429.77,839.1c0,4.15-2.58,7-7.15,7-4.72,0-7.06-3.1-7.06-6.94,0-4,2.45-7,7.22-7A6.56,6.56,0,0,1,429.77,839.1Zm-9.14,0c0,2.54.74,3.65,2.06,3.65s2-1.13,2-3.6c0-2.75-.69-3.68-2-3.68S420.63,836.37,420.63,839.12Z" transform="translate(-280 -79)"/><path class="cls-2" d="M450.94,827.38v14.36c0,1.34,0,2.88,0,4h-4.79c-.08-.39-.14-.95-.17-1.27a3.94,3.94,0,0,1-3.62,1.59c-3.49,0-5.37-3-5.37-6.89,0-4.05,2.18-7.06,5.91-7.06,1.57,0,2.7.49,3.06,1.11v-5.87Zm-8.86,11.7c0,2.33.69,3.53,2.07,3.53,1.87,0,2-1.7,2-3.51,0-2.24-.2-3.52-2-3.52C442.82,835.58,442.08,836.71,442.08,839.08Z" transform="translate(-280 -79)"/><path class="cls-2" d="M458.09,840.09c0,1.34.52,2.69,2,2.69a1.56,1.56,0,0,0,1.76-1.2h4.86c-.48,1.77-2,4.51-6.7,4.51-5,0-6.87-3.38-6.87-6.86,0-4,2.12-7.09,7-7.09,5.16,0,6.73,3.49,6.73,6.81a9.86,9.86,0,0,1-.05,1.14Zm3.75-2.58c0-1.24-.37-2.29-1.79-2.29s-1.83,1-1.91,2.29Z" transform="translate(-280 -79)"/><path class="cls-2" d="M489.43,840.06c0-2.73.06-6.25.14-8.32h-.14c-.73,3.75-1.9,8.94-3.18,14h-4.1c-1-4.94-2.15-10.14-2.83-14h-.16c.15,2.06.24,5.47.24,8.46v5.57h-4.56V828.29h7.37c.87,3.54,1.87,8.66,2.26,11.25h.09c.45-2.82,1.62-7.45,2.63-11.25h7.16v17.48h-4.92Z" transform="translate(-280 -79)"/><path class="cls-2" d="M509.46,841.82c0,1.5.08,3.5.16,3.95h-4.56a6.08,6.08,0,0,1-.21-1.23c-.63.82-1.61,1.55-3.75,1.55-3,0-4.59-1.88-4.59-4.24,0-3.13,2.5-4.48,6.57-4.48h1.63v-.74c0-.85-.31-1.47-1.5-1.47s-1.41.51-1.53,1.37h-4.57c.18-2.22,1.5-4.4,6.23-4.39,4.36,0,6.12,1.7,6.12,4.91Zm-4.75-2h-1.1c-1.7,0-2.26.6-2.26,1.58a1.32,1.32,0,0,0,1.44,1.41c1.68,0,1.92-1.15,1.92-2.58Z" transform="translate(-280 -79)"/><path class="cls-2" d="M512.33,835.91c0-1.15,0-2.39,0-3.45h4.83c.07.34.12,1.07.15,1.47a4.27,4.27,0,0,1,3.78-1.79c2.66,0,4.35,1.8,4.35,5.06v8.57h-4.94v-8c0-1.28-.37-2-1.51-2s-1.68.54-1.68,2.41v7.59h-4.95Z" transform="translate(-280 -79)"/><path class="cls-2" d="M526.92,832.46h1.91V829h4.9v3.44h2.33v3.34h-2.33v5.71c0,.82.26,1.13,1.3,1.13.18,0,.42,0,.69,0v3a10.68,10.68,0,0,1-2.89.31c-3.14,0-4-1.54-4-4.05V835.8h-1.89Z" transform="translate(-280 -79)"/><path class="cls-2" d="M542.19,840.09c0,1.34.51,2.69,2,2.69a1.56,1.56,0,0,0,1.76-1.2h4.86c-.48,1.77-2,4.51-6.7,4.51-5,0-6.87-3.38-6.87-6.86,0-4,2.12-7.09,7-7.09,5.15,0,6.73,3.49,6.73,6.81a9.86,9.86,0,0,1,0,1.14Zm3.75-2.58c0-1.24-.37-2.29-1.79-2.29s-1.83,1-1.91,2.29Z" transform="translate(-280 -79)"/><path class="cls-2" d="M553.15,835.91c0-1.15,0-2.39,0-3.45h4.83a13,13,0,0,1,.16,1.47,4.27,4.27,0,0,1,3.78-1.79c2.66,0,4.35,1.8,4.35,5.06v8.57h-4.94v-8c0-1.28-.37-2-1.51-2s-1.68.54-1.68,2.41v7.59h-5Z" transform="translate(-280 -79)"/><path class="cls-2" d="M569,827.38h5v3.45h-5Zm0,5.08h5v13.31h-5Z" transform="translate(-280 -79)"/><path class="cls-2" d="M584,837.24v3.86H576.5v-3.86Z" transform="translate(-280 -79)"/><path class="cls-2" d="M408.47,866.55c0-1.22,0-2.51,0-3.64h4.75c.05.3.12.94.15,1.42a4.44,4.44,0,0,1,3.74-1.75,3.52,3.52,0,0,1,3.4,1.84,4.87,4.87,0,0,1,4.08-1.84c2.47,0,4.31,1.57,4.31,5v8.65H424V868c0-1-.32-1.79-1.38-1.79s-1.53.73-1.53,2.25v7.77h-4.86V868c0-1-.25-1.82-1.36-1.82s-1.55.62-1.55,2.35v7.65h-4.88Z" transform="translate(-280 -79)"/><path class="cls-2" d="M431.68,857.83h4.95v3.44h-4.95Zm0,5.08h4.95v13.3h-4.95Z" transform="translate(-280 -79)"/><path class="cls-2" d="M439.51,866.36c0-1.16,0-2.4,0-3.45h4.83c.07.34.12,1.07.15,1.46a4.27,4.27,0,0,1,3.78-1.79c2.66,0,4.35,1.8,4.35,5.06v8.57h-4.94v-8c0-1.28-.37-2-1.51-2s-1.68.55-1.68,2.41v7.59h-4.95Z" transform="translate(-280 -79)"/><path class="cls-2" d="M459.73,870.54c0,1.34.51,2.68,2,2.68a1.56,1.56,0,0,0,1.76-1.2h4.86c-.48,1.77-2,4.51-6.7,4.51-5,0-6.87-3.38-6.87-6.86,0-4,2.12-7.09,7-7.09,5.15,0,6.73,3.49,6.73,6.81a10.15,10.15,0,0,1-.05,1.15Zm3.75-2.58c0-1.25-.37-2.3-1.79-2.3s-1.83,1-1.91,2.3Z" transform="translate(-280 -79)"/><path class="cls-2" d="M470.69,866.36c0-1.16,0-2.4,0-3.45h4.83a13,13,0,0,1,.16,1.46,4.27,4.27,0,0,1,3.78-1.79c2.66,0,4.35,1.8,4.35,5.06v8.57h-4.94v-8c0-1.28-.37-2-1.51-2s-1.68.55-1.68,2.41v7.59h-4.95Z" transform="translate(-280 -79)"/><path class="cls-2" d="M485.27,862.91h1.92v-3.45h4.89v3.45h2.34v3.33h-2.34V872c0,.82.26,1.13,1.3,1.13.19,0,.43,0,.69,0v3.06a11.06,11.06,0,0,1-2.88.3c-3.14,0-4-1.53-4-4v-6.13h-1.89Z" transform="translate(-280 -79)"/><path class="cls-2" d="M509.78,869.54c0,4.15-2.59,7-7.16,7s-7.05-3.1-7.05-6.94c0-4,2.44-7,7.21-7A6.57,6.57,0,0,1,509.78,869.54Zm-9.15,0c0,2.53.74,3.64,2.07,3.64s2-1.13,2-3.6c0-2.74-.69-3.68-2-3.68S500.63,866.81,500.63,869.57Z" transform="translate(-280 -79)"/><path class="cls-2" d="M389.31,963.06h7.51c5.56,0,8.79,3.52,8.79,8.55s-3.14,8.93-8.87,8.93h-7.43Zm5.13,13.77h2c2.78,0,3.92-2,3.92-5.22,0-2.9-1.06-4.84-3.86-4.84h-2Z" transform="translate(-280 -79)"/><path class="cls-2" d="M408.06,962.16H413v3.44h-4.95Zm0,5.08H413v13.3h-4.95Z" transform="translate(-280 -79)"/><path class="cls-2" d="M419.63,976.43a1.82,1.82,0,0,0,2,1.32c1,0,1.39-.3,1.39-.91s-.58-.89-2.33-1.29c-4.59-1-5.24-2.54-5.24-4.42s1.35-4.21,5.9-4.21c4.34,0,5.9,2.22,6,4.09h-4.43c-.1-.47-.39-1.14-1.73-1.14-.88,0-1.2.37-1.2.82s.43.75,2.59,1.23c4.24,1,5.16,2.43,5.16,4.52,0,2.37-1.73,4.42-6.29,4.42-4.34,0-6.16-2.08-6.43-4.43Z" transform="translate(-280 -79)"/><path class="cls-2" d="M434.26,974.87c0,1.34.51,2.68,2,2.68a1.57,1.57,0,0,0,1.76-1.2h4.86c-.48,1.77-2,4.51-6.7,4.51-5,0-6.87-3.38-6.87-6.86,0-4,2.12-7.08,7-7.08,5.15,0,6.73,3.48,6.73,6.8a10.15,10.15,0,0,1-.05,1.15Zm3.75-2.58c0-1.25-.37-2.3-1.79-2.3s-1.83,1-1.91,2.3Z" transform="translate(-280 -79)"/><path class="cls-2" d="M445.22,970.69c0-1.16,0-2.4,0-3.45H450a13,13,0,0,1,.16,1.46,4.27,4.27,0,0,1,3.78-1.78c2.66,0,4.34,1.79,4.34,5.05v8.57h-4.93v-8c0-1.28-.37-2-1.51-2s-1.68.55-1.68,2.41v7.59h-4.95Zm1.87-5.18v-.84c0-2.45,1.18-3,2.55-3,1.56,0,2.69,1,3.5,1,.32,0,.51-.16.51-.7v-.26h2.68v.63c0,2.8-1.31,3.31-2.63,3.31-1.53,0-2.67-.91-3.4-.91-.32,0-.48.13-.48.49v.32Z" transform="translate(-280 -79)"/><path class="cls-2" d="M473.25,976.59c0,1.5.08,3.5.16,3.95h-4.56a5.27,5.27,0,0,1-.21-1.23c-.63.83-1.61,1.55-3.75,1.55-3,0-4.6-1.87-4.6-4.24,0-3.13,2.51-4.48,6.57-4.48h1.63v-.73c0-.86-.3-1.48-1.49-1.48s-1.42.51-1.53,1.37H460.9c.18-2.22,1.5-4.4,6.22-4.38,4.36,0,6.13,1.69,6.13,4.9Zm-4.76-2H467.4c-1.71,0-2.27.59-2.27,1.57a1.32,1.32,0,0,0,1.45,1.41c1.68,0,1.91-1.15,1.91-2.57Z" transform="translate(-280 -79)"/><path class="cls-2" d="M489.36,962.16v14.36c0,1.33,0,2.87,0,4H484.6c-.07-.39-.14-.94-.17-1.27a3.93,3.93,0,0,1-3.62,1.59c-3.49,0-5.37-3-5.37-6.89,0-4.05,2.18-7.05,5.92-7.05,1.57,0,2.69.48,3.06,1.1v-5.86Zm-8.85,11.69c0,2.33.68,3.53,2.07,3.53,1.86,0,2-1.69,2-3.51,0-2.23-.2-3.51-2-3.51C481.24,970.36,480.51,971.48,480.51,973.85Z" transform="translate(-280 -79)"/><path class="cls-2" d="M505.74,973.87c0,4.15-2.59,7-7.15,7-4.72,0-7.06-3.1-7.06-6.94,0-4,2.44-7,7.22-7A6.56,6.56,0,0,1,505.74,973.87Zm-9.15,0c0,2.53.75,3.64,2.07,3.64s2-1.13,2-3.6c0-2.74-.69-3.68-2-3.68S496.59,971.14,496.59,973.9Z" transform="translate(-280 -79)"/><path class="cls-2" d="M507.94,971.06c0-1.28,0-2.64,0-3.82h4.84c.06.41.12,1.58.12,2.16a4.12,4.12,0,0,1,4.09-2.48v4.52c-2.8-.12-4.06.52-4.06,3.63v5.47h-4.95Z" transform="translate(-280 -79)"/><path class="cls-2" d="M782.65,963.06v17.48h-5.14V963.06Z" transform="translate(-280 -79)"/><path class="cls-2" d="M785.63,980.54V962.16h5v18.38Z" transform="translate(-280 -79)"/><path class="cls-2" d="M806.31,976.29c0,1.18,0,3,0,4.25h-4.86c-.06-.32-.08-1-.1-1.4a4,4,0,0,1-3.67,1.73c-2.86,0-4.38-1.73-4.38-4.89v-8.74h4.94v7.92c0,1.21.35,2.06,1.46,2.06s1.63-.65,1.63-2.63v-7.35h4.95Z" transform="translate(-280 -79)"/><path class="cls-2" d="M812.82,976.43a1.83,1.83,0,0,0,2,1.32c1,0,1.4-.3,1.4-.91s-.59-.89-2.34-1.29c-4.58-1-5.24-2.54-5.24-4.42s1.35-4.21,5.9-4.21c4.34,0,5.9,2.22,6,4.09h-4.43c-.11-.47-.39-1.14-1.73-1.14-.89,0-1.21.37-1.21.82s.43.75,2.6,1.23c4.24,1,5.15,2.43,5.15,4.52,0,2.37-1.73,4.42-6.28,4.42-4.34,0-6.16-2.08-6.43-4.43Z" transform="translate(-280 -79)"/><path class="cls-2" d="M821.77,967.24h1.92v-3.45h4.89v3.45h2.33v3.33h-2.33v5.71c0,.82.26,1.14,1.3,1.14a5.87,5.87,0,0,0,.69,0v3.06a11.06,11.06,0,0,1-2.88.3c-3.15,0-4-1.53-4-4v-6.13h-1.89Z" transform="translate(-280 -79)"/><path class="cls-2" d="M832.84,971.06c0-1.28,0-2.64,0-3.82h4.83c.06.41.12,1.58.12,2.16a4.14,4.14,0,0,1,4.09-2.48v4.52c-2.8-.12-4.06.52-4.06,3.63v5.47h-4.95Z" transform="translate(-280 -79)"/><path class="cls-2" d="M855.64,976.59a37.82,37.82,0,0,0,.16,3.95h-4.57a5.85,5.85,0,0,1-.2-1.23c-.63.83-1.61,1.55-3.75,1.55-3,0-4.6-1.87-4.6-4.24,0-3.13,2.51-4.48,6.57-4.48h1.63v-.73c0-.86-.3-1.48-1.49-1.48s-1.42.51-1.53,1.37h-4.57c.18-2.22,1.49-4.4,6.22-4.38,4.36,0,6.13,1.69,6.13,4.9Zm-4.76-2h-1.09c-1.71,0-2.27.59-2.27,1.57a1.32,1.32,0,0,0,1.45,1.41c1.68,0,1.91-1.15,1.91-2.57Z" transform="translate(-280 -79)"/><path class="cls-2" d="M871.75,962.16v14.36c0,1.33,0,2.87,0,4H867c-.08-.39-.14-.94-.17-1.27a3.94,3.94,0,0,1-3.62,1.59c-3.49,0-5.37-3-5.37-6.89,0-4.05,2.18-7.05,5.91-7.05,1.57,0,2.7.48,3.06,1.1v-5.86Zm-8.85,11.69c0,2.33.68,3.53,2.07,3.53,1.86,0,2-1.69,2-3.51,0-2.23-.2-3.51-2-3.51C863.63,970.36,862.9,971.48,862.9,973.85Z" transform="translate(-280 -79)"/><path class="cls-2" d="M888.13,973.87c0,4.15-2.59,7-7.16,7s-7.05-3.1-7.05-6.94c0-4,2.44-7,7.21-7C885.52,966.92,888.13,969.84,888.13,973.87Zm-9.15,0c0,2.53.75,3.64,2.07,3.64s2-1.13,2-3.6c0-2.74-.69-3.68-2-3.68S879,971.14,879,973.9Z" transform="translate(-280 -79)"/><path class="cls-2" d="M890.33,971.06c0-1.28,0-2.64,0-3.82h4.84c.06.41.12,1.58.12,2.16a4.12,4.12,0,0,1,4.09-2.48v4.52c-2.8-.12-4.06.52-4.06,3.63v5.47h-4.95Z" transform="translate(-280 -79)"/></g><g id="Capa_8" data-name="Capa 8"><line class="cls-3" x1="153.01" y1="432.07" x2="1434.5" y2="431.5"/></g><g id="Capa_9" data-name="Capa 9"><line class="cls-10" x1="153.01" y1="430.48" x2="153.01" y2="474.88"/><line class="cls-10" x1="964.82" y1="432.07" x2="964.82" y2="474.88"/><line class="cls-10" x1="1434.5" y1="431.5" x2="1434.51" y2="475.5"/></g><g id="Capa_10" data-name="Capa 10"><line class="cls-3" x1="152.21" y1="567.63" x2="152.21" y2="604.1"/><line class="cls-10" x1="151.42" y1="695.27" x2="151.42" y2="725.4"/><line class="cls-10" x1="151.42" y1="817.36" x2="151.42" y2="849.07"/><line class="cls-10" x1="374.99" y1="902.98" x2="351.2" y2="902.98"/><line class="cls-10" x1="581.11" y1="563.67" x2="581.11" y2="603.31"/><line class="cls-10" x1="964.82" y1="566.84" x2="964.82" y2="603.31"/><line class="cls-10" x1="1434.5" y1="567.5" x2="1434.5" y2="606.5"/></g></svg>